<?xml version="1.0" standalone="no"?><!DOCTYPE svg PUBLIC "-//W3C//DTD SVG 1.1//EN" "http://www.w3.org/Graphics/SVG/1.1/DTD/svg11.dtd"><svg t="1557741981861" class="icon" style="" viewBox="0 0 1024 1024" version="1.1" xmlns="http://www.w3.org/2000/svg" p-id="4706" xmlns:xlink="http://www.w3.org/1999/xlink" width="200" height="200"><defs><style type="text/css"></style></defs><path d="M959.072649 895.066254c-2.558209-5.832717-63.852903-144.896972-269.225942-247.327671-2.251224-1.125612-4.502448-1.944239-6.753672-2.660538 20.772659-30.698511 35.610273-66.001799 43.898871-101.612071 49.117618-31.005496 77.769561-77.360248 73.574098-120.235835-2.558209-26.400719-17.088838-47.68502-40.522035-60.373738-5.423404-241.597282-137.120016-292.966124-248.043969-292.966124S269.379434 121.259119 264.058359 362.958729c-23.433197 12.688718-37.963825 33.973019-40.522034 60.373738-4.195463 42.875587 24.45648 89.12801 73.574098 120.235835 8.288598 35.610273 23.126212 70.811232 43.89887 101.612072-2.251224 0.716299-4.604777 1.534926-6.753672 2.660537C128.780254 750.169282 67.383232 889.233537 64.927351 895.066254c-6.139702 14.4283-4.707105 30.903168 3.990806 44.001199 8.595583 12.995703 23.22854 20.874988 38.884781 20.874987h808.598781c15.656241 0 30.186869-7.879285 38.88478-20.874987 8.493255-13.098031 9.925852-29.675227 3.78615-44.001199z m-301.664035-10.744479c0 3.78615-1.841911 7.367643-5.01409 9.516538-1.944239 1.432597-4.297792 2.046567-6.651344 2.046568-1.330269 0-2.762866-0.204657-3.990807-0.716299l-129.752373-62.522634-129.752373 62.522634c-3.581493 1.330269-7.572299 0.818627-10.642151-1.330269s-5.01409-5.730389-5.01409-9.516538V749.043669c0-3.888478 1.944239-7.469971 5.116419-9.618866 3.274508-2.148896 7.265314-2.558209 10.846807-1.125612l129.445388 66.51344 129.445388-66.51344c3.581493-1.432597 7.674628-1.023284 10.846807 1.125612 3.172179 2.148896 5.116419 5.730389 5.116419 9.618866v135.278106z" fill="#cde3a5" p-id="4707"></path><path d="M622.51464 913.383032h-221.02928" fill="#cde3a5" p-id="4708"></path></svg>